/* XPM */
static char *olga[] = {
/* columns rows colors chars-per-pixel */
"32 32 225 2 ",
"   c #0A0708",
".  c #0D090A",
"X  c #0B0707",
"o  c #120D0D",
"O  c #1B0A0B",
"+  c #151112",
"@  c #1B1513",
"#  c #1A1618",
"$  c #1C191C",
"%  c #1C1818",
"&  c #130F10",
"*  c #2B090E",
"=  c #260A0D",
"-  c #35070D",
";  c #3A070E",
":  c #3D080F",
">  c #31080E",
",  c #260D11",
"<  c #350C12",
"1  c #3D0A11",
"2  c #231312",
"3  c #211915",
"4  c #2B1B1C",
"5  c #261917",
"6  c #381918",
"7  c #2B261E",
"8  c #39211B",
"9  c #1D1B20",
"0  c #211F23",
"q  c #201F37",
"w  c #232123",
"e  c #2C2523",
"r  c #29252A",
"t  c #28262B",
"y  c #322624",
"u  c #352A27",
"i  c #35332D",
"p  c #282838",
"a  c #332E35",
"s  c #393335",
"d  c #3A363B",
"f  c #2F3037",
"g  c #40080F",
"h  c #440911",
"j  c #4B0A13",
"k  c #510A14",
"l  c #5D0C18",
"z  c #48161B",
"x  c #6C0C1C",
"c  c #680E1E",
"v  c #441F23",
"b  c #7B0E21",
"n  c #6B1628",
"m  c #7B1324",
"M  c #781729",
"N  c #781B30",
"B  c #49282A",
"V  c #552720",
"C  c #443936",
"Z  c #5C2F36",
"A  c #78262A",
"S  c #64312A",
"D  c #732538",
"F  c #7D323A",
"G  c #612F27",
"H  c #4A4339",
"J  c #262945",
"K  c #382D47",
"L  c #353549",
"P  c #3A3951",
"I  c #413F44",
"U  c #46334A",
"Y  c #58364D",
"T  c #453A52",
"R  c #4C374C",
"E  c #663746",
"W  c #71384E",
"Q  c #3D435D",
"!  c #4A4542",
"~  c #544A49",
"^  c #454658",
"/  c #564657",
"(  c #57504B",
")  c #644247",
"_  c #79424B",
"`  c #674B5A",
"'  c #774A58",
"]  c #655958",
"[  c #7A5555",
"{  c #70524F",
"}  c #6B635A",
"|  c #77675D",
" . c #57576A",
".. c #4C4F66",
"X. c #744B61",
"o. c #795568",
"O. c #6D5970",
"+. c #66656C",
"@. c #786A67",
"#. c #7B736B",
"$. c #686872",
"%. c #7A687A",
"&. c #717373",
"*. c #7C797D",
"=. c #7A7578",
"-. c #840E23",
";. c #811125",
":. c #8C142B",
">. c #89152B",
",. c #93132D",
"<. c #9B132E",
"1. c #8D1B33",
"2. c #861B30",
"3. c #951731",
"4. c #9A1631",
"5. c #9D1C3A",
"6. c #981B34",
"7. c #A31634",
"8. c #A41937",
"9. c #8C2232",
"0. c #862534",
"q. c #95243B",
"w. c #84222F",
"e. c #A0223A",
"r. c #BA5D37",
"t. c #984834",
"y. c #932942",
"u. c #87394B",
"i. c #9A3647",
"p. c #833C51",
"a. c #983751",
"s. c #A4384C",
"d. c #884556",
"f. c #88595A",
"g. c #8F4F4F",
"h. c #B5544E",
"j. c #AD684A",
"k. c #895B66",
"l. c #865E74",
"z. c #A85761",
"x. c #9A666A",
"c. c #867A6D",
"v. c #88766C",
"b. c #876678",
"n. c #847A73",
"m. c #877E77",
"M. c #967776",
"N. c #996875",
"B. c #AA717A",
"V. c #B97378",
"C. c #B06977",
"Z. c #8B8479",
"A. c #94867C",
"S. c #93897C",
"D. c #9A907E",
"F. c #A28078",
"G. c #797A87",
"H. c #747B8A",
"J. c #80778B",
"K. c #A27987",
"L. c #788597",
"P. c #7A91A0",
"I. c #868384",
"U. c #888788",
"Y. c #958B85",
"T. c #988B85",
"R. c #9C9385",
"E. c #98928E",
"W. c #9C9391",
"Q. c #9D9B9C",
"!. c #99959A",
"~. c #86909A",
"^. c #A99D8E",
"/. c #A49889",
"(. c #A39C9E",
"). c #A59B94",
"_. c #B09192",
"`. c #ABA194",
"'. c #ABA49D",
"]. c #A5A09D",
"[. c #B0A596",
"{. c #B3AA9E",
"}. c #ACA08F",
"|. c #849BAC",
" X c #9A9BA0",
".X c #A39EA2",
"XX c #91A7B5",
"oX c #A9A6A6",
"OX c #B3ADA3",
"+X c #B2A9A7",
"@X c #B8B4AC",
"#X c #A7ABB0",
"$X c #B4B3B3",
"%X c #BDBBBE",
"&X c #BAB7B6",
"*X c #B3ACB0",
"=X c #C5A8A9",
"-X c #C1BEB5",
";X c #C1BEBA",
":X c #C6B0AD",
">X c #C4C2BB",
",X c #B3BBC3",
"<X c #C1BFC1",
"1X c #C5C5C3",
"2X c #CCCDCD",
"3X c #C5C6C8",
"4X c #D1D0CE",
"5X c #CDCED1",
"6X c #D3D3D4",
"7X c #D4D6D9",
"8X c #DBDCDC",
"9X c #D6D9DD",
"0X c #CFD1D3",
"qX c #DDDEE1",
"wX c #E1DFE3",
"eX c #DFE0E3",
"rX c #E2E3E4",
"tX c #E4E6EA",
"yX c #E9EAED",
"uX c #E5E8ED",
"iX c #EDEEF1",
"pX c #EFF1F5",
"aX c #F2F3F5",
"sX c #F5F6F8",
"dX c #F8FAFB",
/* pixels */
"7.8.4.C.p.a.X.p.V.5.7.7.1.B.:Xk.3.' W 1.W A c m M n M V E / f.a.",
"8.7.i.N.l.e.p.J.x.V.s.7.7.y.d.W E W E d.m -.;.w.1.4.4.b M N F 9.",
"7.q.V.b.X.5.X.o.Z B.V.5.4.,.,.:.'  .E 2.-.b F B.d.w.-.-.-.;.M 9.",
"4.z.l.E G.l.J.X.L K N.K.B.u.3.,.u.] D :.b g.v.v.Z.x.9.e.,.;.>.>.",
"s.d.K J.G.|.O.Y d p !.!.:XJ.q.,.p.] N ,.w.x.@.C ) A.q.8.<.,.:.:.",
"K.K K J K ` T ..] u +.oX$XM.' 2.p.~ :.:.f.} 0 y B k.0.5.,.,.6.6.",
"+XG.K K Q Q ../ *.I.C H ` ` =.@.%.U n W v 3 0 3 [ t.M 6.3.,.:.n ",
"*XO.J.W  ...U J.+.*./ w r r d t 0 0 $ ! @ s y 3 { r.M :.,.,.-.M ",
" .J ..O.' T J.K K d e 0 $ $ $ 9 f &.# 7 X @ 5 v g.A w.;.>.>.b ;.",
"q q J Q l.a.X.K L p 0 # &.U.i f $.&.. o X X O g.>.b ;.b b b b 0.",
"P q J Y g.r.k.$.d r r # t i ( ~ #X! 3 7 y X 2 l l x b x c c x A ",
"l.` Y H.j.j.*.H.a $ 0 &     & L.9Xm.@ + . X o 8 8 z j k k h z G ",
"y.a.l.P.~.H.P.+.L s Q d i 0 d 0XOXB.] @ . X X 2 6 6 ; g g , u V ",
"z.W d.L.|.P.|.#XoX$X!.U.$.d !.eX_.M.D.( @ . . 3 8 6 ; ; g g h G ",
"f.Y d.G.|.|.,XiXpXiXrX3XU.&.0X;XM.T./.S.H 7 @ @ = * - ; g h j G ",
"u.E g.x.L.XXuXsXsXpXiXrX5XQ.&X&X{.D.Z.| 3 @ 3 3 6 2 O 2 = , 6 H ",
"' E m.:XT.,XuXpXiXyXeXrX8X2X>X-X=X).A.v.@.! 7 @ 6 , , @ 5 1 z V ",
"[ E E.!. X#X3XiXrXrX8X8X8X8X4X-X-X-X>X1X1X*Xm.u 4 O 2 < h h j j ",
"k.T k.&. XeXpXeXeX4X4X6X>XrX8X>X>X>X>X>XOX{.^.| 2 = * - ; h h h ",
"g.f.G.$.,XuXeXqX4X2X2X2XOXyXrX>X-X&X-XOX`.`.^.S.8 * > - ; g h h ",
"d.K.W.J. XeXqX9X4X>X0X3X&XrX8X4XOX>X&X[.`.OX^./.{ < - ; ; g g h ",
"(.wX7XK.Q.7XqX9X6X4X7X7X6X6X6X>XOXOX@X).OX`.E.OX).B < - ; h h 1 ",
"rXiX6Xd + G.0X0X7X5X7X8X2X&X@XQ.U.U.I.S.^.Y.OX{.`.R.B - g h h B ",
"sXiXqXI.+ + E.$X%X3X5X9X1XQ.].G.e i i @.R.OX`.OXOXA.B ; g h j 4 ",
"sXiXwX<X0 o I T.(.$X%X1XoXn.n.( % w $ 7 Z.^.}.[.`.^.n.z < h j z ",
"dXaXuX7XU.a + @.W.(.'.oX#.y y 3 & & @ 3 } Z.}.}.[.[.c.z 2 h j k ",
"dXsXiXrX2X$.r a .X(.E.A.] 3 @ o + + o X 7 v.}.[.[.^.@.3 , ; h k ",
"0XsXsXuX6XoX#.] (.!.Y.A.v.y o @ . . o . . | D.[.^.^.} 5 * ; h k ",
"iXdXaXiXrX;XT.Y.oXE.Y.A.v.7 @ o . . + o . H D.}.^.R.#.e o > h j ",
"aXdXaXiXtX6X).Y.*XW.Y.Y.n.@ o o &   + o X H D.[././.] u @ O h k ",
"aXsXdXiXaX6X(.Y.%X(.W.).m.o o o . o . . X u D.D./.Z.i # o o * j ",
"yXyXdXsXiXtXoXm.1XoXOX+Xm.% X o o X o + . C D.D.D.Z.} #.C o O < "
};
